<?xml version="1.0" encoding="utf-8"?>
<!-- Generator: Adobe Illustrator 22.0.1, SVG Export Plug-In . SVG Version: 6.00 Build 0)  -->
<svg version="1.1" id="_레이어_1" xmlns="http://www.w3.org/2000/svg" xmlns:xlink="http://www.w3.org/1999/xlink" x="0px"
	 y="0px" viewBox="0 0 209.9 38.9" style="enable-background:new 0 0 209.9 38.9;" xml:space="preserve">
<style type="text/css">
	.st0{fill:url(#SVGID_1_);}
	.st1{fill:#9555FE;}
	.st2{fill:url(#SVGID_2_);}
	.st3{fill:url(#SVGID_3_);}
	.st4{fill:url(#SVGID_4_);}
	.st5{fill:url(#SVGID_5_);}
</style>
<g>
	
		<linearGradient id="SVGID_1_" gradientUnits="userSpaceOnUse" x1="20.4822" y1="370.5311" x2="24.7822" y2="359.4312" gradientTransform="matrix(1 0 0 1 0 -339)">
		<stop  offset="0" style="stop-color:#6B10FF"/>
		<stop  offset="1" style="stop-color:#9555FE"/>
	</linearGradient>
	<polygon class="st0" points="26.4,0.1 19.4,24.4 24.2,38 36,0.1 	"/>
	<path class="st1" d="M18.3,20.8l-6-20.7H0L12.3,38h11.9l-4.8-13.6C19.1,23.2,18.7,22,18.3,20.8z"/>
</g>
<path class="st1" d="M59.7,22.3c0,2.2-0.1,3.7-0.3,4.5s-0.7,1.4-1.6,2s-2,0.9-3.5,0.9c-1.7,0-2.9-0.4-3.7-1.3s-1.2-2.2-1.2-4V0H37.7
	v25.7c0,4.5,1.5,7.8,4.3,9.8s6.8,3.1,11.5,3.1s8.2-1,11.1-3.1c2.8-2.1,4.2-5.5,4.2-10.3V0.1h-9.2L59.7,22.3L59.7,22.3z"/>
<g>
	
		<linearGradient id="SVGID_2_" gradientUnits="userSpaceOnUse" x1="81.9627" y1="357.6375" x2="95.8027" y2="357.6375" gradientTransform="matrix(1 0 0 1 0 -339)">
		<stop  offset="0" style="stop-color:#6B10FF"/>
		<stop  offset="0.43" style="stop-color:#9555FE"/>
	</linearGradient>
	<rect x="82" y="14.4" class="st2" width="13.8" height="8.4"/>
	<polygon class="st1" points="99.1,8.9 99.1,0.1 70.5,0.1 70.5,38 99.1,38 99.1,29 82,29 82,22.8 82,14.4 82,8.9 	"/>
</g>
<g>
	<polygon class="st1" points="141.6,0.1 129.9,0.1 129.9,38 156.5,38 156.5,28.7 141.6,28.7 	"/>
	<rect x="158.3" y="0.1" class="st1" width="11.6" height="37.9"/>
	<g>
		
			<linearGradient id="SVGID_3_" gradientUnits="userSpaceOnUse" x1="112.1327" y1="358.5875" x2="124.5027" y2="358.5875" gradientTransform="matrix(1 0 0 1 0 -339)">
			<stop  offset="0" style="stop-color:#6B10FF"/>
			<stop  offset="0.43" style="stop-color:#9555FE"/>
		</linearGradient>
		<rect x="112.1" y="15.3" class="st3" width="12.4" height="8.5"/>
		<polygon class="st1" points="128.2,9.1 128.2,0.1 100.8,0.1 100.8,38 112.1,38 112.1,23.8 112.1,15.3 112.1,9.1 		"/>
	</g>
	<g>
		
			<linearGradient id="SVGID_4_" gradientUnits="userSpaceOnUse" x1="180.7495" y1="355.967" x2="180.4095" y2="373.287" gradientTransform="matrix(1 0 0 1 0 -339)">
			<stop  offset="0" style="stop-color:#6B10FF"/>
			<stop  offset="0.92" style="stop-color:#9555FE"/>
		</linearGradient>
		<polygon class="st4" points="171.6,38 182.3,38 189.3,26.1 183.8,18.5 		"/>
		
			<linearGradient id="SVGID_5_" gradientUnits="userSpaceOnUse" x1="198.1792" y1="361.1062" x2="200.0493" y2="342.2562" gradientTransform="matrix(1 0 0 1 0 -339)">
			<stop  offset="0" style="stop-color:#6B10FF"/>
			<stop  offset="0.92" style="stop-color:#9555FE"/>
		</linearGradient>
		<polygon class="st5" points="208.1,0.1 197.7,0.1 191.6,10.3 197.1,17.7 		"/>
		<polygon class="st1" points="191.6,10.3 185.7,0.1 172.1,0.1 183.8,18.5 189.3,26.1 196.3,38 209.9,38 197.1,17.7 		"/>
	</g>
</g>
</svg>
