<?xml version="1.0" encoding="utf-8"?>
<!-- Generator: Adobe Illustrator 22.0.1, SVG Export Plug-In . SVG Version: 6.00 Build 0)  -->
<svg version="1.1" id="_레이어_1" xmlns="http://www.w3.org/2000/svg" xmlns:xlink="http://www.w3.org/1999/xlink" x="0px"
	 y="0px" viewBox="0 0 209.9 37.9" style="enable-background:new 0 0 209.9 37.9;" xml:space="preserve">
<style type="text/css">
	.st0{fill:url(#SVGID_1_);}
	.st1{fill:#9555FE;}
	.st2{fill:url(#SVGID_2_);}
	.st3{fill:url(#SVGID_3_);}
	.st4{fill:url(#SVGID_4_);}
	.st5{fill:url(#SVGID_5_);}
</style>
<g>
	
		<linearGradient id="SVGID_1_" gradientUnits="userSpaceOnUse" x1="20.4688" y1="8.6105" x2="24.7688" y2="19.7105" gradientTransform="matrix(1 0 0 -1 0 40)">
		<stop  offset="0" style="stop-color:#6B10FF"/>
		<stop  offset="1" style="stop-color:#9555FE"/>
	</linearGradient>
	<polygon class="st0" points="26.4,0 19.4,24.3 24.2,37.9 36,0 	"/>
	<path class="st1" d="M18.3,20.7L12.3,0H0l12.3,37.9h11.9l-4.8-13.6C19.1,23.1,18.7,21.9,18.3,20.7z"/>
</g>
<path class="st1" d="M59.7,22.2c0,2.2-0.1,3.7-0.3,4.5s-0.7,1.4-1.6,2s-2,0.9-3.5,0.9c-1.7,0-2.9-0.4-3.7-1.3s-1.2-2.2-1.2-4V0H37.7
	v25.7c0,4.5,1.5,7.8,4.3,9.8s6.7,3,11.5,3s8.2-1,11.1-3.1c2.8-2.1,4.2-5.5,4.2-10.3V0h-9.2L59.7,22.2L59.7,22.2z"/>
<polygon class="st1" points="141.6,0 129.9,0 129.9,37.9 156.5,37.9 156.5,28.6 141.6,28.6 "/>
<rect x="158.3" class="st1" width="11.6" height="37.9"/>
<g>
	
		<linearGradient id="SVGID_2_" gradientUnits="userSpaceOnUse" x1="81.96" y1="21.53" x2="95.8" y2="21.53" gradientTransform="matrix(1 0 0 -1 0 40)">
		<stop  offset="0" style="stop-color:#6B10FF"/>
		<stop  offset="0.43" style="stop-color:#9555FE"/>
	</linearGradient>
	<rect x="82" y="14.3" class="st2" width="13.8" height="8.4"/>
	<polygon class="st1" points="99.1,8.8 99.1,0 70.5,0 70.5,37.9 99.1,37.9 99.1,28.9 82,28.9 82,22.7 82,14.3 82,8.8 	"/>
</g>
<g>
	
		<linearGradient id="SVGID_3_" gradientUnits="userSpaceOnUse" x1="112.13" y1="20.525" x2="124.5" y2="20.525" gradientTransform="matrix(1 0 0 -1 0 40)">
		<stop  offset="0" style="stop-color:#6B10FF"/>
		<stop  offset="0.43" style="stop-color:#9555FE"/>
	</linearGradient>
	<rect x="112.1" y="15.2" class="st3" width="12.4" height="8.5"/>
	<polygon class="st1" points="128.2,9 128.2,0 100.8,0 100.8,37.9 112.1,37.9 112.1,23.7 112.1,15.2 112.1,9 	"/>
</g>
<g>
	
		<linearGradient id="SVGID_4_" gradientUnits="userSpaceOnUse" x1="180.7721" y1="23.17" x2="180.4321" y2="5.85" gradientTransform="matrix(1 0 0 -1 0 40)">
		<stop  offset="0" style="stop-color:#6B10FF"/>
		<stop  offset="0.92" style="stop-color:#9555FE"/>
	</linearGradient>
	<polygon class="st4" points="171.6,37.9 182.3,37.9 189.3,26 183.8,18.4 	"/>
	
		<linearGradient id="SVGID_5_" gradientUnits="userSpaceOnUse" x1="198.1919" y1="18.0298" x2="200.0619" y2="36.8798" gradientTransform="matrix(1 0 0 -1 0 40)">
		<stop  offset="0" style="stop-color:#6B10FF"/>
		<stop  offset="0.92" style="stop-color:#9555FE"/>
	</linearGradient>
	<polygon class="st5" points="208.1,0 197.7,0 191.6,10.2 197.1,17.6 	"/>
	<polygon class="st1" points="191.6,10.2 185.7,0 172.1,0 183.8,18.4 189.3,26 196.3,37.9 209.9,37.9 197.1,17.6 	"/>
</g>
</svg>
